:SAMPLES-PER-SECOND 30
:FRAME-RANGE 1-2009
:FULLY-SPECIFIED
:DEGREES
942
root  2.29625 37.9649 72.1229 -171.181 -52.6073 169.981
RightUpLeg  -10.6756 -0.758001 -6.12534
RightLeg  67.4857 4.53776 11.2773
RightFoot  4.80445 -1.33633 9.63327
RightToes  2.96424e-010 1.2921e-014 -6.02303e-014
Spine  -7.04864 -0.913858 -6.71852
Spine1  8.76778 0.582205 -7.2795
HEad  6.77895 -38.3621 9.8611
LeftShoulder1  0.317359 2.17838 -22.0733
LeftArm  -4.83863 15.4235 -35.8318
LeftForeArm  29.8788 -0.273483 -11.1503
LeftHand  -0.0354272 5.07272 4.55693
RightShoulder  1.16872 0.576589 23.8913
RightArm  -39.3463 10.2418 42.9628
RightForeArm  15.2915 9.90538 -1.16255
RightHand  -0.183307 -3.1127 -8.75041
LeftUpLeg  -17.9813 -9.89208 -1.52326
LeftLeg  23.3407 -0.392434 0.268111
LeftFoot  -8.16675 0.197681 -5.36553
LeftToes  -1.2485e-010 1.20979e-011 -1.0929e-011
943
root  1.46119 38.1551 71.627 -172.763 -50.2904 171.525
RightUpLeg  -14.8339 -3.01684 -5.68591
RightLeg  69.3529 2.48118 6.55212
RightFoot  1.01249 -0.686347 6.39853
RightToes  2.96424e-010 1.2921e-014 -6.02303e-014
Spine  -5.83842 -1.26099 -7.63997
Spine1  7.73504 -0.238531 -6.03839
HEad  6.07447 -36.17 10.7286
LeftShoulder1  0.352019 2.03808 -21.6633
LeftArm  -4.52662 15.1563 -36.1636
LeftForeArm  29.5527 -1.25776 -11.2863
LeftHand  -0.0188962 5.49811 5.47781
RightShoulder  1.28765 1.03112 23.4811
RightArm  -38.6853 13.1703 43.775
RightForeArm  15.1236 8.81926 -1.38193
RightHand  -0.176428 -3.20855 -8.74871
LeftUpLeg  -15.3791 -6.89836 -1.5214
LeftLeg  22.8042 -0.940794 0.458954
LeftFoot  -9.41391 0.134485 -4.63945
LeftToes  -1.2485e-010 1.20979e-011 -1.0929e-011
944
root  0.656393 38.3204 71.127 -174.24 -48.2313 173.218
RightUpLeg  -18.7661 -5.08908 -4.87477
RightLeg  68.4502 2.01811 4.942
RightFoot  -0.746177 -0.397894 4.2333
RightToes  2.96424e-010 1.2921e-014 -6.02303e-014
Spine  -4.89897 -1.6001 -7.64599
Spine1  6.88395 -0.811366 -5.49778
HEad  5.05095 -34.5382 11.8435
LeftShoulder1  0.521064 1.38578 -20.9837
LeftArm  -4.53904 14.3317 -36.7148
LeftForeArm  30.5804 -1.85251 -11.2824
LeftHand  -0.0512211 4.57349 4.32568
RightShoulder  1.34299 1.18932 23.6875
RightArm  -38.329 16.1074 44.3145
RightForeArm  15.4571 8.23587 -1.58326
RightHand  -0.182512 -3.0635 -8.58252
LeftUpLeg  -13.0913 -3.72173 -1.13366
LeftLeg  22.2556 -1.82038 0.524442
LeftFoot  -10.6101 0.0888859 -3.96215
LeftToes  -1.2485e-010 1.20979e-011 -1.0929e-011
945
root  -0.11405 38.4307 70.6091 -175.155 -46.3797 174.487
RightUpLeg  -22.15 -7.36889 -4.14953
RightLeg  65.1051 2.13761 4.44467
RightFoot  -3.41767 -0.235242 3.05898
RightToes  2.96424e-010 1.2921e-014 -6.02303e-014
Spine  -4.11063 -1.90623 -7.81453
Spine1  5.92719 -1.31169 -4.74278
HEad  4.16468 -33.2955 12.7258
LeftShoulder1  0.713554 0.614292 -20.3125
LeftArm  -3.60947 13.0109 -37.2887
LeftForeArm  30.4979 -2.3989 -11.595
LeftHand  -0.0503728 4.63962 4.5609
RightShoulder  1.3889 1.36195 23.5673
RightArm  -37.558 19.1703 44.339
RightForeArm  14.7638 7.35761 -1.67795
RightHand  -0.186745 -3.02158 -8.59734
LeftUpLeg  -11.1084 -0.210874 -0.58463
LeftLeg  21.7534 -3.20233 0.0432582
LeftFoot  -11.8561 0.0566482 -3.21112
LeftToes  -1.2485e-010 1.20979e-011 -1.0929e-011
